HIERARCHY
ROOT Hips
{
    OFFSET 0.000000 0.000000 0.000000
    CHANNELS 6 Xposition Yposition Zposition Zrotation Xrotation Yrotation
    JOINT Spine
    {
        OFFSET -0.000000 7.236184 0.000000
        CHANNELS 3 Zrotation Xrotation Yrotation
        JOINT Spine1
        {
            OFFSET -0.000000 20.420147 0.000000
            CHANNELS 3 Zrotation Xrotation Yrotation
            JOINT Neck
            {
                OFFSET -0.000000 20.336288 1.848754
                CHANNELS 3 Zrotation Xrotation Yrotation
                JOINT Head
                {
                    OFFSET -0.000000 12.354461 -1.764923
                    CHANNELS 3 Zrotation Xrotation Yrotation
                    End Site
                    {
                        OFFSET -0.000000 22.061537 0.000000
                    }
                }
            }
            JOINT LeftShoulder
            {
                OFFSET 3.573296 18.396038 -0.314103
                CHANNELS 3 Zrotation Xrotation Yrotation
                JOINT LeftArm
                {
                    OFFSET 10.880760 0.000000 0.000000
                    CHANNELS 3 Zrotation Xrotation Yrotation
                    JOINT LeftForeArm
                    {
                        OFFSET 27.185530 0.000000 0.000000
                        CHANNELS 3 Zrotation Xrotation Yrotation
                        JOINT LeftHand
                        {
                            OFFSET 27.825975 0.000000 0.000000
                            CHANNELS 3 Zrotation Xrotation Yrotation
                            End Site
                            {
                                OFFSET 13.236923 0.000000 0.000000
                            }
                        }
                    }
                }
            }
            JOINT RightShoulder
            {
                OFFSET -3.474926 18.396038 -0.314103
                CHANNELS 3 Zrotation Xrotation Yrotation
                JOINT RightArm
                {
                    OFFSET -10.880760 0.000000 0.000000
                    CHANNELS 3 Zrotation Xrotation Yrotation
                    JOINT RightForeArm
                    {
                        OFFSET -27.185530 0.000000 0.000000
                        CHANNELS 3 Zrotation Xrotation Yrotation
                        JOINT RightHand
                        {
                            OFFSET -27.825975 0.000000 0.000000
                            CHANNELS 3 Zrotation Xrotation Yrotation
                            End Site
                            {
                                OFFSET -13.236923 0.000000 0.000000
                            }
                        }
                    }
                }
            }
        }
    }
    JOINT LeftUpLeg
    {
        OFFSET 8.824615 0.000000 0.000000
        CHANNELS 3 Zrotation Xrotation Yrotation
        JOINT LeftLeg
        {
            OFFSET -0.000000 -35.111282 0.000000
            CHANNELS 3 Zrotation Xrotation Yrotation
            JOINT LeftFoot
            {
                OFFSET -0.000000 -42.324711 0.000000
                CHANNELS 3 Zrotation Xrotation Yrotation
                JOINT LeftToeBase
                {
                    OFFSET -0.000000 -5.735999 13.236923
                    CHANNELS 3 Zrotation Xrotation Yrotation
                    End Site
                    {
                        OFFSET -0.000000 0.000000 3.529846
                    }
                }
            }
        }
    }
    JOINT RightUpLeg
    {
        OFFSET -8.824615 0.000000 0.000000
        CHANNELS 3 Zrotation Xrotation Yrotation
        JOINT RightLeg
        {
            OFFSET -0.000000 -35.111282 0.000000
            CHANNELS 3 Zrotation Xrotation Yrotation
            JOINT RightFoot
            {
                OFFSET -0.000000 -42.324711 0.000000
                CHANNELS 3 Zrotation Xrotation Yrotation
                JOINT RightToeBase
                {
                    OFFSET -0.000000 -5.735999 13.236923
                    CHANNELS 3 Zrotation Xrotation Yrotation
                    End Site
                    {
                        OFFSET -0.000000 0.000000 3.529846
                    }
                }
            }
        }
    }
}
MOTION
Frames:    11
Frame Time:    0.008333
1.798165    81.706985    100.457298    2.428839    -8.158345    -163.654526    -0.485154    -15.707693    0.988486    -0.027010    8.530723    1.057404    1.594732    8.379210    -3.225321    4.766015    -10.809581    -2.355706    -0.714418    17.287672    0.475620    -52.151859    33.142963    -36.416393    5.106355    -8.643037    -15.109364    12.684354    -7.704596    2.432603    5.892187    18.506035    -6.022898    46.116661    45.867706    31.731249    -0.925866    -10.377992    22.338715    -14.045281    -9.464697    -6.036910    6.241318    -19.794176    1.597365    -2.290583    22.996061    6.549808    -7.162997    -8.085227    -11.928981    -0.066415    -2.053582    0.073895    -6.435083    -3.576208    3.303493    3.267165    4.273351    0.424349    -0.037245    -7.873298    -11.481310    -2.255100    -0.990894    2.442357    
1.803188    81.697678    100.454865    2.465656    -8.149341    -163.621170    -0.496144    -15.719504    0.960534    0.014749    8.552055    1.027924    1.573284    8.399091    -3.247185    4.747910    -10.791271    -2.381562    -0.724091    17.302864    0.465688    -52.153671    33.156010    -36.451294    5.195424    -8.750741    -15.100642    13.008589    -7.793816    2.436899    5.934784    18.522711    -6.042463    46.251823    45.703403    31.625664    -0.835086    -10.608487    22.192228    -14.008495    -9.711152    -6.081274    6.263092    -19.845160    1.573808    -2.261912    23.076828    6.531215    -7.143881    -8.166604    -11.931453    -0.058454    -2.023685    0.065034    -6.389079    -3.608832    3.334611    3.266436    4.346928    0.440662    -0.062734    -7.901389    -11.561937    -2.248014    -0.988297    2.434674    
1.807719    81.689178    100.452301    2.498865    -8.140924    -163.590759    -0.506377    -15.730260    0.935112    0.052568    8.571718    1.001212    1.553425    8.416506    -3.267284    4.731286    -10.774086    -2.405370    -0.732985    17.316885    0.457024    -52.157253    33.166706    -36.480469    5.275737    -8.848042    -15.092653    13.301297    -7.874362    2.441710    5.974244    18.536690    -6.060057    46.377594    45.550533    31.527176    -0.752839    -10.821069    22.057360    -13.972324    -9.937912    -6.123859    6.282444    -19.890642    1.551183    -2.235857    23.149572    6.514792    -7.126041    -8.240589    -11.933233    -0.051244    -1.996574    0.057010    -6.347391    -3.637905    3.362384    3.265797    4.413677    0.454917    -0.085809    -7.926725    -11.634419    -2.241692    -0.985327    2.427817    
1.812055    81.680855    100.449196    2.530645    -8.132402    -163.561066    -0.516840    -15.740872    0.910521    0.089286    8.591331    0.975261    1.533000    8.432543    -3.287274    4.715406    -10.756610    -2.428895    -0.741715    17.331264    0.449207    -52.164753    33.174458    -36.504196    5.352548    -8.940970    -15.084737    13.582367    -7.951161    2.446958    6.014007    18.551592    -6.077945    46.501717    45.394527    31.431810    -0.671340    -11.032738    21.923256    -13.931731    -10.163254    -6.169728    6.300488    -19.933317    1.526978    -2.210716    23.218996    6.500006    -7.107980    -8.312372    -11.934342    -0.044380    -1.969574    0.049371    -6.307235    -3.665135    3.388611    3.265409    4.478115    0.467690    -0.108149    -7.950885    -11.703464    -2.235948    -0.981904    2.421585    
1.816153    81.672714    100.445282    2.560723    -8.123643    -163.532043    -0.527588    -15.751212    0.886712    0.124442    8.610937    0.950373    1.512057    8.446843    -3.307340    4.700055    -10.738916    -2.452343    -0.750070    17.345745    0.442505    -52.178097    33.178444    -36.519913    5.424777    -9.028362    -15.076950    13.849982    -8.023289    2.452148    6.054312    18.566086    -6.095760    46.627155    45.234005    31.336800    -0.589345    -11.245195    21.789814    -13.884868    -10.389027    -6.220953    6.316967    -19.972569    1.500217    -2.186796    23.284771    6.487190    -7.089814    -8.381895    -11.934312    -0.038096    -1.943354    0.042378    -6.268806    -3.690003    3.412726    3.265136    4.540154    0.479060    -0.129686    -7.973851    -11.768790    -2.230879    -0.977465    2.416080    
1.819958    81.664803    100.440392    2.588688    -8.114671    -163.503830    -0.538841    -15.761475    0.864023    0.157946    8.630799    0.926716    1.490359    8.459136    -3.327465    4.685256    -10.721298    -2.475706    -0.758093    17.360859    0.437297    -52.197906    33.177837    -36.526470    5.491248    -9.108842    -15.069224    14.100678    -8.089666    2.456846    6.095419    18.580688    -6.113603    46.752674    45.068172    31.243433    -0.505952    -11.459484    21.657772    -13.829895    -10.616296    -6.279406    6.331421    -20.007717    1.470629    -2.164145    23.346060    6.476677    -7.072135    -8.448383    -11.933241    -0.032521    -1.917925    0.036174    -6.232610    -3.711946    3.434061    3.265052    4.599078    0.489191    -0.150120    -7.995332    -11.829797    -2.226656    -0.971692    2.411488    
1.823409    81.657196    100.434410    2.614148    -8.105513    -163.476578    -0.550652    -15.771435    0.842683    0.189470    8.650655    0.904650    1.467742    8.469085    -3.347708    4.671254    -10.703936    -2.498972    -0.765585    17.376190    0.433773    -52.225388    33.172287    -36.521702    5.550670    -9.180980    -15.061832    14.331434    -8.149096    2.460766    6.137054    18.595833    -6.131724    46.877312    44.897198    31.152992    -0.420493    -11.676796    21.528471    -13.765674    -10.846282    -6.346609    6.343517    -20.038282    1.438239    -2.142881    23.402397    6.468468    -7.055588    -8.511249    -11.931152    -0.027819    -1.893265    0.030942    -6.199025    -3.730634    3.451735    3.265031    4.654539    0.497707    -0.169152    -8.015175    -11.885147    -2.223260    -0.964745    2.407787    
1.826448    81.649948    100.427246    2.636737    -8.096218    -163.450439    -0.563046    -15.781022    0.822960    0.218714    8.670465    0.884464    1.443990    8.476524    -3.368055    4.658555    -10.687129    -2.521960    -0.772568    17.391644    0.432194    -52.260777    33.161972    -36.504436    5.602417    -9.243822    -15.055047    14.539092    -8.200807    2.463666    6.179207    18.610525    -6.149345    47.000843    44.722256    31.064615    -0.332630    -11.898117    21.404003    -13.691728    -11.079958    -6.423913    6.352930    -20.063885    1.403234    -2.123109    23.453323    6.462343    -7.040623    -8.569908    -11.927962    -0.024101    -1.870126    0.026806    -6.168495    -3.745607    3.465055    3.265075    4.705815    0.504883    -0.186561    -8.033114    -11.934347    -2.220888    -0.956236    2.405190    
1.829065    81.643089    100.418831    2.656474    -8.086785    -163.425339    -0.576043    -15.790226    0.805056    0.245702    8.690309    0.866268    1.419079    8.481643    -3.388625    4.646960    -10.671746    -2.544816    -0.778743    17.407370    0.432815    -52.304127    33.146896    -36.474297    5.645746    -9.297022    -15.048866    14.723410    -8.244599    2.465310    6.221680    18.625380    -6.166865    47.122128    44.543369    30.979694    -0.241357    -12.126698    21.285534    -13.607207    -11.320656    -6.512884    6.359583    -20.084608    1.366046    -2.104442    23.499104    6.457672    -7.027620    -8.624463    -11.923763    -0.021569    -1.848389    0.023988    -6.140924    -3.756786    3.473496    3.264980    4.752993    0.510841    -0.202033    -8.049262    -11.977010    -2.219501    -0.946757    2.403656    
1.831231    81.636604    100.409065    2.673310    -8.077106    -163.401184    -0.589766    -15.798947    0.789062    0.270670    8.710167    0.850277    1.392607    8.484279    -3.409586    4.636749    -10.657745    -2.567616    -0.784523    17.423193    0.435711    -52.355614    33.127029    -36.429966    5.680265    -9.340280    -15.043264    14.883797    -8.280263    2.465206    6.264569    18.639671    -6.183700    47.241199    44.360874    30.896908    -0.145508    -12.365744    21.174994    -13.511694    -11.571727    -6.614849    6.363401    -20.100393    1.327103    -2.086580    23.539995    6.453633    -7.016627    -8.675162    -11.918414    -0.020281    -1.828137    0.022555    -6.116354    -3.763890    3.476722    3.264795    4.795841    0.515733    -0.215617    -8.063536    -12.013054    -2.219129    -0.935825    2.403216    
1.832913    81.630562    100.398109    2.687167    -8.067262    -163.378281    -0.603750    -15.806795    0.775314    0.293174    8.729681    0.836870    1.364849    8.484480    -3.430647    4.628202    -10.645941    -2.590003    -0.789334    17.438879    0.441077    -52.414425    33.103146    -36.372025    5.705370    -9.372976    -15.038811    15.018096    -8.307291    2.463540    6.306685    18.653685    -6.199879    47.354706    44.178757    30.819284    -0.046371    -12.614342    21.075985    -13.406649    -11.832081    -6.729255    6.364508    -20.111336    1.287604    -2.069529    23.576002    6.449386    -7.007726    -8.721635    -11.911857    -0.020221    -1.809451    0.022487    -6.095009    -3.766732    3.474764    3.264470    4.833805    0.520083    -0.227059    -8.075959    -12.042646    -2.219672    -0.924101    2.403764    
